<svg id="Layer_1" data-name="Layer 1" xmlns="http://www.w3.org/2000/svg" viewBox="0 0 137.71 253.7"><title>20160407_LIGHT_ICONJAM</title><polygon points="58.26 251.2 41.53 235.59 37.82 182.43 31.13 170.16 31.13 136.7 9.56 103.61 2.5 65.7 27.41 17.37 65.7 2.5 112.17 17.37 135.21 65.7 129.64 103.61 111.05 136.7 109.19 170.16 101.39 181.31 97.3 234.1 78.71 251.2 58.26 251.2" fill="none" stroke="#231f20" stroke-linejoin="round" stroke-width="5"/><polygon points="100.63 206.49 99.34 211.33 40.76 218.57 39.97 214.9 100.63 206.49" fill="#231f20"/><polygon points="100.63 198.35 99.34 203.19 40.76 210.44 39.97 206.76 100.63 198.35" fill="#231f20"/><polygon points="100.63 190.21 99.34 195.05 40.76 202.3 39.97 198.62 100.63 190.21" fill="#231f20"/><polygon points="101.39 214.32 100.06 219.39 40.02 227.01 39.21 223.15 101.39 214.32" fill="#231f20"/><polygon points="101.1 222.46 99.78 227.53 39.74 235.15 38.93 231.28 101.1 222.46" fill="#231f20"/><polygon points="31.13 170.16 111.05 136.7 31.13 136.7 31.13 170.16" fill="#0faab1" stroke="#231f20" stroke-linejoin="round" stroke-width="3"/><polygon points="129.64 103.61 70.02 136.7 111.05 136.7 129.64 103.61" fill="#ec008c" stroke="#231f20" stroke-linejoin="round" stroke-width="3"/><polygon points="31.13 170.16 109.19 170.16 111.05 136.7 31.13 170.16" fill="#0faab1" stroke="#231f20" stroke-linejoin="round" stroke-width="3"/><polygon points="70.02 136.7 9.56 103.61 31.13 136.7 70.02 136.7" fill="#ec008c" stroke="#231f20" stroke-linejoin="round" stroke-width="3"/><polygon points="65.7 2.5 65.7 32.98 27.41 17.37 65.7 2.5" fill="#ec008c" stroke="#231f20" stroke-linejoin="round" stroke-width="3"/><polygon points="112.17 17.37 65.7 32.98 65.7 2.5 112.17 17.37" fill="#da1c5c" stroke="#231f20" stroke-linejoin="round" stroke-width="3"/><polygon points="129.64 103.61 95.82 67.18 95.82 122.38 129.64 103.61" fill="#da1c5c" stroke="#231f20" stroke-linejoin="round" stroke-width="3"/><polygon points="9.56 103.61 40.37 67.18 40.37 120.16 9.56 103.61" fill="#da1c5c" stroke="#231f20" stroke-linejoin="round" stroke-width="3"/><polygon points="40.37 67.18 54.15 80.97 54.15 67.18 40.37 67.18" fill="#fff" stroke="#231f20" stroke-miterlimit="10" stroke-width="3"/><polygon points="54.15 67.18 67.94 80.97 67.94 67.18 54.15 67.18" fill="#fff" stroke="#231f20" stroke-miterlimit="10" stroke-width="3"/><polygon points="68.11 67.18 81.89 80.97 81.89 67.18 68.11 67.18" fill="#fff" stroke="#231f20" stroke-miterlimit="10" stroke-width="3"/><polygon points="82.04 67.18 95.82 80.97 95.82 67.18 82.04 67.18" fill="#fff" stroke="#231f20" stroke-miterlimit="10" stroke-width="3"/><polygon points="40.37 120.16 95.82 122.38 70.02 136.7 40.37 120.16" fill="#da1c5c" stroke="#231f20" stroke-linejoin="round" stroke-width="3"/><polygon points="40.37 89.12 95.82 122.38 40.37 120.16 40.37 89.12" fill="#ec008c" stroke="#231f20" stroke-linejoin="round" stroke-width="3"/><polygon points="40.37 67.18 27.41 17.37 2.5 65.7 40.37 67.18" fill="#ec008c" stroke="#231f20" stroke-linejoin="round" stroke-width="3"/><polygon points="88.93 25.18 95.82 67.18 135.21 65.7 88.93 25.18" fill="#da1c5c" stroke="#231f20" stroke-linejoin="round" stroke-width="3"/><polygon points="63.84 32.98 40.37 67.18 27.41 17.37 63.84 32.98" fill="#da1c5c" stroke="#231f20" stroke-linejoin="round" stroke-width="3"/><polygon points="63.84 32.98 95.82 67.18 88.93 25.18 63.84 32.98" fill="#ee2a7b" stroke="#231f20" stroke-linejoin="round" stroke-width="3"/><polygon points="95.82 122.38 95.82 80.97 82.04 67.18 81.89 80.97 68.11 67.18 67.94 80.97 54.15 67.18 54.15 80.97 40.37 67.18 40.37 89.12 95.82 122.38" fill="#ee2a7b" stroke="#231f20" stroke-linejoin="round" stroke-width="3"/><polygon points="2.5 65.7 9.56 103.61 40.37 67.18 2.5 65.7" fill="#ec008c" stroke="#231f20" stroke-linejoin="round" stroke-width="3"/><polygon points="63.84 32.98 40.37 67.18 95.82 67.18 63.84 32.98" fill="#ec008c" stroke="#231f20" stroke-linejoin="round" stroke-width="3"/><polygon points="112.17 17.37 88.93 25.18 135.21 65.7 112.17 17.37" fill="#ec008c" stroke="#231f20" stroke-linejoin="round" stroke-width="3"/><polygon points="129.64 103.61 95.82 67.18 135.21 65.7 129.64 103.61" fill="#ec008c" stroke="#231f20" stroke-linejoin="round" stroke-width="3"/></svg>