<svg id="LOGOS" xmlns="http://www.w3.org/2000/svg" xmlns:xlink="http://www.w3.org/1999/xlink" viewBox="0 0 189.05 189.05"><defs><linearGradient id="linear-gradient" x1="59.84" y1="83.27" x2="57.32" y2="35.2" gradientUnits="userSpaceOnUse"><stop offset="0" stop-color="#ec008c" stop-opacity="0"/><stop offset="0.99" stop-color="#0faab1"/></linearGradient><linearGradient id="linear-gradient-2" x1="95.45" y1="147.31" x2="91.8" y2="77.57" xlink:href="#linear-gradient"/><linearGradient id="linear-gradient-3" x1="120.4" y1="78.13" x2="118.15" y2="35.29" xlink:href="#linear-gradient"/></defs><title>logo</title><rect x="0.04" width="189.05" height="189.05" fill="none"/><polygon points="89.88 81.7 54.65 81.7 27.28 36.77 62.51 36.77 89.88 81.7" opacity="0.5" fill="url(#linear-gradient)"/><polygon points="136.37 145.16 97.52 145.16 50.88 79.72 89.73 79.72 136.37 145.16" opacity="0.5" fill="url(#linear-gradient-2)"/><polygon points="148.67 76.65 119.09 76.65 89.88 36.77 119.46 36.77 148.67 76.65" opacity="0.5" fill="url(#linear-gradient-3)"/><polygon points="116.95 145.16 78.1 145.16 50.88 104.38 89.73 104.38 116.95 145.16" fill="none"/><path d="M160.73,114.39a34.94,34.94,0,0,0-17.18-21.65,41.8,41.8,0,0,0-8.48-3.12c4.91-1.79,6.92-2.9,9.15-4.46,8.93-6.69,13.17-17.18,13.17-27.89a41.43,41.43,0,0,0-8.26-25c-6.25-8-15.84-15-37.27-16.29-4.91-.22-9.6-0.22-14.51-0.22H27.28V36.83H50.87V79.71H89.63V36.83h29.85V153.27H89.63V104.45H50.87v48.82H27.28v20H90.66c19.64-.45,29.45-0.67,38.6-3.57,21-6,32.58-23,32.58-44.63A50,50,0,0,0,160.73,114.39Z" fill="#0faab1"/></svg>