<?xml version="1.0" encoding="utf-8"?>
<!-- Generator: Adobe Illustrator 19.1.0, SVG Export Plug-In . SVG Version: 6.00 Build 0)  -->
<svg version="1.1" id="Layer_1" xmlns="http://www.w3.org/2000/svg" xmlns:xlink="http://www.w3.org/1999/xlink" x="0px" y="0px"
	 viewBox="0 0 1000 1000" style="enable-background:new 0 0 1000 1000;" xml:space="preserve">
<style type="text/css">
	.st0{fill:none;}
	.st1{fill:url(#SVGID_1_);}
	.st2{fill:url(#SVGID_2_);}
	.st3{fill:url(#SVGID_3_);}
	.st4{fill:url(#SVGID_4_);}
	.st5{fill:url(#SVGID_5_);}
	.st6{fill:#F68C1F;}
</style>
<g>
	<polygon class="st0" points="495.8,416.9 673.1,665.7 673.1,398.6 670.8,398.6 496.9,161.3 495.1,161.3 495.1,416.9 489.4,416.9 
		489.4,416.9 	"/>
	<linearGradient id="SVGID_1_" gradientUnits="userSpaceOnUse" x1="483.3547" y1="822.2211" x2="461.5706" y2="406.5551">
		<stop  offset="0" style="stop-color:#FFFFFF;stop-opacity:0"/>
		<stop  offset="0.9946" style="stop-color:#2C3E50;stop-opacity:0.4"/>
	</linearGradient>
	<polygon class="st1" points="495.8,416.9 489.4,416.9 279.5,416.9 264.2,416.9 368.9,563.9 495.8,563.9 658,807 673.1,807 
		673.1,665.7 	"/>
	<linearGradient id="SVGID_2_" gradientUnits="userSpaceOnUse" x1="208.7227" y1="443.7903" x2="193.7066" y2="157.2656">
		<stop  offset="0" style="stop-color:#FFFFFF;stop-opacity:0"/>
		<stop  offset="0.9946" style="stop-color:#2C3E50;stop-opacity:0.4"/>
	</linearGradient>
	<polygon class="st2" points="123.7,161.3 264.1,391.7 264.1,161.3 	"/>
	<linearGradient id="SVGID_3_" gradientUnits="userSpaceOnUse" x1="385.3673" y1="434.5327" x2="370.3512" y2="148.0081">
		<stop  offset="0" style="stop-color:#FFFFFF;stop-opacity:0"/>
		<stop  offset="0.9946" style="stop-color:#2C3E50;stop-opacity:0.4"/>
	</linearGradient>
	<polygon class="st3" points="489.4,416.9 279.4,416.9 279.5,416.9 489.4,416.9 	"/>
	<linearGradient id="SVGID_4_" gradientUnits="userSpaceOnUse" x1="384.7375" y1="422.3864" x2="377.61" y2="286.3859">
		<stop  offset="0" style="stop-color:#FFFFFF;stop-opacity:0"/>
		<stop  offset="0.9946" style="stop-color:#2C3E50;stop-opacity:0.4"/>
	</linearGradient>
	<line class="st4" x1="489.4" y1="416.9" x2="279.5" y2="416.9"/>
	<linearGradient id="SVGID_5_" gradientUnits="userSpaceOnUse" x1="598.0919" y1="411.6524" x2="584.7109" y2="156.327">
		<stop  offset="0" style="stop-color:#FFFFFF;stop-opacity:0"/>
		<stop  offset="0.9946" style="stop-color:#2C3E50;stop-opacity:0.4"/>
	</linearGradient>
	<polygon class="st5" points="673.1,398.6 673.1,161.3 496.9,161.3 670.8,398.6 	"/>
	<path class="st6" d="M918.9,623.6c-14.6-54.5-53.2-103.7-102.4-129c-20-10.6-45.2-17.3-50.5-18.6c29.3-10.6,41.2-17.3,54.5-26.6
		C873.7,409.4,899,346.9,899,283c0-26.6-4-89.1-49.2-149C812.5,86.2,755.3,45,627.6,37c-29.3-1.3-57.2-1.3-86.5-1.3H123.5v125.6h0.2
		h140.4v230.4v25.2h15.3h210h5.7V161.3h1.7h176.2v237.3v267.1V807v48.3H495.1v-291h-231v291H123.5v119.4h377.8
		c117-2.7,175.6-4,230.1-21.3c125-35.9,194.2-137,194.2-266C925.6,656.8,921.6,636.9,918.9,623.6z"/>
</g>
</svg>
